<?xml version="1.0"?>
<svg xmlns="http://www.w3.org/2000/svg" viewBox="0 0 16 16">
    <path d="M 7.4921875 0.9921875 A 0.50005 0.50005 0 0 0 7 1.5 L 7 2.0195312 C 5.9656486 2.0770939 5.0285722 2.3566146 4.3125 2.8886719 C 3.5093971 3.4853948 2.9976137 4.4070768 2.9941406 5.4941406 L 2.9941406 5.4960938 L 2.9941406 7.0058594 L 2.8320312 7.0058594 C 1.8602864 7.0058594 1 7.7203016 1 8.6738281 L 1 10 A 0.50005 0.50005 0 1 0 2 10 L 2 8.6738281 C 2 8.3433546 2.3377761 8.0058594 2.8320312 8.0058594 L 2.9941406 8.0058594 L 2.9941406 10.164062 C 2.9941406 11.170996 3.8216454 11.998047 4.828125 11.998047 L 6.0019531 11.998047 L 6.0019531 12.833984 C 6.0019531 12.833984 6.0045231 13.171068 6.2246094 13.466797 C 6.4446969 13.762526 6.8895512 14.003792 7.5 14.001953 C 8.110999 14.00012 8.5529982 13.75972 8.7734375 13.464844 C 8.9938768 13.169968 8.9960938 12.832031 8.9960938 12.832031 L 8.9960938 11.998047 L 10.171875 11.998047 C 11.178355 11.998047 12.005859 11.170997 12.005859 10.164062 L 12.005859 8.0058594 L 12.167969 8.0058594 C 12.662224 8.0058594 13 8.3433546 13 8.6738281 L 13 10.25 A 0.50005 0.50005 0 1 0 14 10.25 L 14 8.6738281 C 14 7.7203016 13.139714 7.0058594 12.167969 7.0058594 L 12.005859 7.0058594 L 12.005859 5.4960938 L 12.005859 5.4941406 C 12.002435 4.2798028 11.406088 3.3343369 10.533203 2.7753906 C 9.8183083 2.3176122 8.9362547 2.0943659 8 2.0253906 L 8 1.5 A 0.50005 0.50005 0 0 0 7.4921875 0.9921875 z M 7.375 2.9941406 C 7.3977492 2.9941406 7.4187481 2.9978414 7.4414062 2.9980469 A 0.50005 0.50005 0 0 0 7.5078125 3.0019531 C 8.4895737 3.0198206 9.3819157 3.2251531 9.9941406 3.6171875 C 10.633981 4.0269051 11.002686 4.5837667 11.005859 5.4960938 L 11.005859 6.1191406 L 11 6.1191406 C 11 6.6119398 10.619477 6.9941406 10.167969 6.9941406 L 4.8320312 6.9941406 C 4.3813491 6.9947555 4 6.6119398 4 6.1191406 L 3.9941406 6.1191406 L 3.9941406 5.4980469 L 3.9941406 5.4960938 C 3.9972454 4.7062392 4.3235793 4.1257946 4.9082031 3.6914062 C 5.4933503 3.2566293 6.3585356 2.9941406 7.375 2.9941406 z M 5.5 4.9941406 A 0.5 0.5 0 0 0 5 5.4941406 A 0.5 0.5 0 0 0 5.5 5.9941406 A 0.5 0.5 0 0 0 6 5.4941406 A 0.5 0.5 0 0 0 5.5 4.9941406 z M 9.5 4.9941406 A 0.5 0.5 0 0 0 9 5.4941406 A 0.5 0.5 0 0 0 9.5 5.9941406 A 0.5 0.5 0 0 0 10 5.4941406 A 0.5 0.5 0 0 0 9.5 4.9941406 z M 3.9941406 7.7753906 C 4.2460611 7.9103001 4.5280675 7.9942285 4.8320312 7.9941406 L 10.167969 7.9941406 C 10.471954 7.9941406 10.753937 7.9102421 11.005859 7.7753906 L 11.005859 10.164062 C 11.005859 10.625129 10.633395 10.998047 10.171875 10.998047 L 4.828125 10.998047 C 4.3666046 10.998047 3.9941406 10.62513 3.9941406 10.164062 L 3.9941406 7.7753906 z M 7.0019531 12 L 7.9960938 12 L 7.9960938 12.833984 C 7.9960938 12.833984 8.0017142 12.828288 7.9726562 12.867188 C 7.9435953 12.906057 7.8850942 13.000786 7.4960938 13.001953 C 7.1105424 13.003153 7.0567562 12.908663 7.0273438 12.869141 C 6.9979318 12.829621 7.0019531 12.832031 7.0019531 12.832031 L 7.0019531 12 z"/>
</svg>
